<svg xmlns="http://www.w3.org/2000/svg" viewBox="0 0 200 200" width="200" height="200">
  <circle cx="100" cy="100" r="100" fill="#26766c"/>
  <g transform="translate(100, 100) scale(0.85) translate(-55, -55)">
    <path fill="#ffffff" d="M55,100c-6.8,0-12.7-1-17.7-3.1-5-2.1-8.9-5.2-11.7-9.3-2.8-4.1-4.3-9.1-4.4-15.1h16.9c.2,2.8,1.1,5.2,2.6,7.1,1.5,1.9,3.5,3.3,5.9,4.3,2.5,.9,5.3,1.4,8.4,1.4s5.8-.4,8.1-1.3c2.3-.9,4.1-2.2,5.4-3.8,1.3-1.6,1.9-3.5,1.9-5.7,0-1.9-.6-3.6-1.7-4.9-1.2-1.3-2.8-2.4-5-3.4-2.2-.9-4.8-1.8-7.9-2.5l-9.3-2.3c-7.2-1.8-12.8-4.5-16.8-8.2-4.1-3.7-6.1-8.7-6.1-14.8,0-5.1,1.4-9.6,4.1-13.4,2.8-3.8,6.5-6.8,11.3-8.9,4.8-2.1,10.3-3.2,16.4-3.2s11.7,1.1,16.4,3.2c4.7,2.1,8.3,5.1,10.9,8.9,2.6,3.8,4,8.2,4,13.2h-16.8c-.3-3.4-1.8-6-4.4-7.9-2.6-1.9-6.1-2.8-10.4-2.8-2.9,0-5.4,.4-7.5,1.2-2.1,.8-3.7,2-4.8,3.5-1.1,1.5-1.6,3.2-1.6,5.1,0,2.1,.6,3.8,1.9,5.2,1.3,1.4,2.9,2.5,5,3.4,2.1,.9,4.3,1.6,6.7,2.1l7.7,1.9c3.6,.8,6.9,1.9,9.9,3.2,3.1,1.4,5.8,3,8.1,5,2.3,2,4.1,4.4,5.4,7.1,1.3,2.7,1.9,5.9,1.9,9.4,0,5.1-1.3,9.6-3.9,13.4-2.6,3.8-6.3,6.8-11.2,8.8-4.9,2.1-10.8,3.1-17.6,3.1Z"/>
  </g>
</svg>
